<svg xmlns="http://www.w3.org/2000/svg" viewBox="0 0 32 32">
  <!-- Lince: cabeza de lince ibérico (orejas con pinceles negros y barba en las mejillas). -->
  <defs>
    <linearGradient id="lince-fondo" x1="0" y1="0" x2="1" y2="1">
      <stop offset="0" stop-color="#5b5cf6"/>
      <stop offset="1" stop-color="#9645ee"/>
    </linearGradient>
    <radialGradient id="lince-brillo" cx=".2" cy="0" r="1">
      <stop offset="0" stop-color="#fff" stop-opacity=".24"/>
      <stop offset=".55" stop-color="#fff" stop-opacity="0"/>
    </radialGradient>
  </defs>
  <rect class="fondo" width="32" height="32" rx="9" fill="url(#lince-fondo)"/>
  <rect class="fondo" width="32" height="32" rx="9" fill="url(#lince-brillo)"/>
  <g class="marca">
    <!-- cabeza con la barba -->
    <path fill="#fff" d="M16 9.74C18.56 9.74 21.04 10.59 22.65 12.4C23.89 13.82 24.45 15.63 24.65 17.34Q25.4 19.62 27.3 20.95Q25.69 21.23 24.55 21.23Q24.93 23.14 25.88 24.94Q23.89 24.65 22.08 25.13C20.37 25.6 18.38 26.65 16 26.65C13.62 26.65 11.63 25.6 9.92 25.13Q8.11 24.65 6.12 24.94Q7.07 23.14 7.45 21.23Q6.31 21.23 4.7 20.95Q6.6 19.62 7.35 17.34C7.55 15.63 8.11 13.82 9.35 12.4C10.96 10.59 13.44 9.74 16 9.74Z"/>
    <!-- orejas (aparte: la izquierda va en sentido contrario y en la misma ruta haría un agujero) -->
    <path fill="#fff" d="M17.23 10.5C18.95 8.31 20.46 6.42 22.08 4.71C23.5 7.27 24.07 10.59 23.5 14.59ZM14.77 10.5C13.05 8.31 11.54 6.42 9.92 4.71C8.5 7.27 7.93 10.59 8.5 14.59Z"/>
    <path fill="#d9d3fe" d="M18.85 10.88C19.9 9.55 20.75 8.5 21.8 7.46C22.55 8.98 22.75 10.79 22.46 12.49ZM13.15 10.88C12.1 9.55 11.25 8.5 10.2 7.46C9.45 8.98 9.25 10.79 9.54 12.49Z"/>
    <!-- pinceles, ojos y nariz -->
    <path fill="#2a1f6e" d="M21.41 5.43Q21.65 3.57 22.46 1.81Q22.84 3.66 22.59 5.74Q22 6.02 21.41 5.43ZM10.59 5.43Q10.35 3.57 9.54 1.81Q9.16 3.66 9.41 5.74Q10 6.02 10.59 5.43ZM17.85 16.79C18.83 14.57 20.87 14.65 21.75 16.56C20.77 18.61 18.83 18.78 17.85 16.79ZM14.15 16.79C13.17 14.57 11.13 14.65 10.25 16.56C11.23 18.61 13.17 18.78 14.15 16.79ZM14.57 19.9H17.43C17.9 19.9 18 20.38 17.14 20.76L16.43 21.28C16.19 21.52 15.81 21.52 15.57 21.28L14.86 20.76C14.01 20.38 14.1 19.9 14.57 19.9Z"/>
    <circle cx="19.09" cy="15.99" r=".55" fill="#fff"/>
    <circle cx="11.49" cy="15.99" r=".55" fill="#fff"/>
    <path fill="none" stroke="#2a1f6e" stroke-width=".65" stroke-linecap="round" d="M16 21.28v.67q-.19.61-1.33.57M16 21.95q.19.61 1.33.57"/>
  </g>
</svg>
